<?xml version="1.0" encoding="utf-8"?>
<!-- Generator: Adobe Illustrator 21.1.0, SVG Export Plug-In . SVG Version: 6.00 Build 0)  -->
<svg version="1.1" id="Layer_1" xmlns="http://www.w3.org/2000/svg" xmlns:xlink="http://www.w3.org/1999/xlink" x="0px" y="0px"
	 viewBox="0 0 45 45" style="enable-background:new 0 0 45 45;" xml:space="preserve">
<style type="text/css">
	.st0{fill:none;stroke:#000000;stroke-miterlimit:10;}
	.st1{fill:url(#SVGID_1_);}
	.st2{fill:#FF4848;}
	.st3{fill:none;stroke:#000000;stroke-width:2;stroke-linecap:round;stroke-miterlimit:10;}
</style>
<path class="st0" d="M-46.4,31.3c-2.8,0-5,2.2-5,5s2.2,5,5,5h29v-10H-46.4z"/>
<path class="st0" d="M-17.4,6.9h-29c-2.8,0-5,2.2-5,5v24.3h34V6.9z"/>
<linearGradient id="SVGID_1_" gradientUnits="userSpaceOnUse" x1="1.0468" y1="-1.5892" x2="46.5828" y2="43.9468">
	<stop  offset="0" style="stop-color:#00F5F2"/>
	<stop  offset="0.9991" style="stop-color:#00A4DB"/>
</linearGradient>
<path class="st1" d="M6.6,34.7c0,2.2,1.8,4,4,4h28v-8h-28C8.4,30.7,6.6,32.5,6.6,34.7z M36,34.7c0,0.6-0.4,1-1,1H10.2
	c-0.6,0-1-0.4-1-1s0.4-1,1-1H35C35.6,33.7,36,34.1,36,34.7z M10.6,6.3h28v22.3h-28c-0.4,0-0.7,0-1.1,0.1c0,0-0.1,0-0.1,0
	c-0.3,0.1-0.6,0.2-0.9,0.3c0,0-0.1,0-0.1,0c-0.3,0.1-0.6,0.3-0.8,0.4c0,0-0.1,0.1-0.1,0.1c-0.3,0.2-0.5,0.4-0.7,0.6c0,0,0,0-0.1,0
	V10.3C6.6,8.1,8.4,6.3,10.6,6.3z M9,0C4,0,0,4,0,9v27c0,5,4,9,9,9h36V0H9z M40.6,28.7v2v10h-30c-3.3,0-6-2.7-6-6V10.3
	c0-3.3,2.7-6,6-6h30V28.7z"/>
<path class="st2" d="M-65.2,45h-36c-5,0-9-4-9-9V9c0-5,4-9,9-9h36V45z"/>
<path class="st3" d="M-99.5,5.3c-2.8,0-5,2.2-5,5v24.3c0-2.8,2.2-5,5-5h29V5.3H-99.5z"/>
<path class="st3" d="M-99.5,29.7c-2.8,0-5,2.2-5,5s2.2,5,5,5h29v-10H-99.5z"/>
<line class="st3" x1="-75.2" y1="34.7" x2="-99.9" y2="34.7"/>
</svg>
